<svg xmlns="http://www.w3.org/2000/svg" aria-hidden="true" style="position:absolute;width:0;height:0;overflow:hidden">
    <defs>
        <symbol id="icon-modal-man" viewBox="0 0 32 32">
            <path
                d="M16 16c2.947 0 5.333-2.387 5.333-5.333S18.946 5.334 16 5.334c-2.947 0-5.333 2.387-5.333 5.333S13.054 16 16 16zm0 2.667c-3.56 0-10.667 1.787-10.667 5.333v1.333c0 .733.6 1.333 1.333 1.333h18.667c.733 0 1.333-.6 1.333-1.333V24c0-3.547-7.107-5.333-10.667-5.333z" />
        </symbol>
        <symbol id="icon-modal-email" viewBox="0 0 24 32">
            <path
                d="M20 8H4c-1.1 0-1.99.9-1.99 2L2 22c0 1.1.9 2 2 2h16c1.1 0 2-.9 2-2V10c0-1.1-.9-2-2-2zm-.4 4.25-7.07 4.42c-.32.2-.74.2-1.06 0L4.4 12.25a.85.85 0 1 1 .9-1.44L12 15l6.7-4.19a.85.85 0 1 1 .9 1.44z" />
        </symbol>
        <symbol id="icon-modal-phone" viewBox="0 0 24 32">
            <path
                d="m19.635 18.487-2.451-.28a1.92 1.92 0 0 0-1.582.55l-1.775 1.775a14.514 14.514 0 0 1-6.359-6.359l1.785-1.785c.415-.415.618-.994.55-1.582l-.28-2.432a1.931 1.931 0 0 0-1.92-1.708H5.934c-1.09 0-1.997.907-1.93 1.997.511 8.24 7.102 14.821 15.332 15.332 1.09.068 1.997-.839 1.997-1.93v-1.669a1.913 1.913 0 0 0-1.698-1.911z" />
        </symbol>
        <symbol id="icon-checked" viewBox="0 0 32 32">
            <path fill="#404bbf" d="M4 1h24a3 3 0 0 1 3 3v24a3 3 0 0 1-3 3H4a3 3 0 0 1-3-3V4a3 3 0 0 1 3-3z"
                style="fill:var(--color1, #404bbf)" />
            <path fill="#f4f4fd"
                d="M22.891 8.51a1.832 1.832 0 0 1 2.558.02 1.855 1.855 0 0 1 .068 2.571L15.728 23.41a1.845 1.845 0 0 1-1.314.591 1.83 1.83 0 0 1-1.336-.542l-6.492-6.527a1.863 1.863 0 0 1-.451-2.046 1.85 1.85 0 0 1 1.017-1.022 1.823 1.823 0 0 1 1.438.026c.225.101.429.247.597.429l5.137 5.163 8.521-10.915a.628.628 0 0 1 .049-.054h-.002z"
                style="fill:var(--color2, #f4f4fd)" />
            <path fill="none" stroke="#404bbf" stroke-width="2"
                d="M4 1h24a3 3 0 0 1 3 3v24a3 3 0 0 1-3 3H4a3 3 0 0 1-3-3V4a3 3 0 0 1 3-3z"
                style="stroke:var(--color1, #404bbf)" />
        </symbol>
        <symbol id="footer-telegram" viewBox="0 0 32 32">
            <path fill="#fff"
                d="m32 2.667-32 15 10.227 3.156L26 8.5 14.002 21.988l.01.003-.012-.003v7.345l5.735-5.576L27 25.999l5-23.333z"
                style="fill:var(--color3, #fff)" />
        </symbol>
        <symbol id="icon-Vector" viewBox="0 0 40 32">
            <path fill="#f4f4fd" style="fill: var(--color1, #f4f4fd)"
                d="M33.782 1.020c0.691-0.662 1.611-1.027 2.565-1.020s1.869 0.387 2.55 1.059c0.681 0.672 1.076 1.584 1.101 2.543s-0.321 1.891-0.966 2.598l-19.578 24.617c-0.337 0.365-0.743 0.657-1.195 0.86s-0.939 0.312-1.434 0.322c-0.495 0.009-0.986-0.082-1.445-0.268s-0.876-0.463-1.226-0.815l-12.984-13.054c-0.362-0.339-0.652-0.747-0.853-1.201s-0.309-0.944-0.318-1.441 0.082-0.99 0.267-1.451c0.185-0.461 0.461-0.879 0.81-1.231s0.766-0.628 1.224-0.814 0.949-0.277 1.443-0.269c0.494 0.009 0.981 0.118 1.433 0.32s0.858 0.494 1.195 0.857l10.275 10.325 17.042-21.83c0.031-0.038 0.063-0.074 0.098-0.109h-0.005z">
            </path>
        </symbol>
        <symbol id="icon-menu-btn" viewBox="0 0 47 32">
            <path
                d="M0.892 0.115c-0.236 0.106-0.436 0.252-0.599 0.432l-0.001 0.001-0.291 0.324v2.483l0.332 0.332c0.636 0.636-1.54 0.583 23.293 0.56l22.106-0.019 0.407-0.225 0.407-0.227v-3.375l-0.806-0.401-22.269 0.003c-18.902 0.003-22.316 0.020-22.579 0.112zM1.068 13.575c-0.359 0.109-0.742 0.384-0.909 0.653-0.141 0.23-0.159 0.384-0.159 1.412 0 1.004 0.020 1.187 0.151 1.401 0.217 0.355 0.735 0.628 1.364 0.72 0.742 0.108 43.081 0.108 43.821 0 0.295-0.042 0.679-0.156 0.854-0.252l0.316-0.175v-3.408l-0.698-0.39-22.263-0.013c-12.246-0.007-22.361 0.016-22.477 0.051zM1.219 27.081c-0.394 0.078-0.73 0.283-0.972 0.571l-0.002 0.003-0.244 0.279v2.497l0.332 0.332c0.636 0.634-1.54 0.582 23.293 0.56 20.793-0.019 22.122-0.028 22.378-0.154 0.573-0.285 0.543-0.17 0.543-2.022v-1.673l-0.892-0.438-22.071-0.012c-12.748-0.007-22.193 0.016-22.364 0.057z">
            </path>
        </symbol>
    </defs>
</svg>